<svg preserveAspectRatio="none" overflow="visible" style="display: block;" width="78.7195" height="82.1128" viewBox="0 0 78.7195 82.1128" fill="none" xmlns="http://www.w3.org/2000/svg">
<path id="Vector" d="M78.7195 38.7307C78.7346 59.3932 64.2951 77.4125 44.6747 81.1281C42.3336 81.5661 39.4185 82.2307 36.594 82.0948C27.4107 81.6869 20.4628 79.4364 13.6055 73.6515C4.19557 65.6916 -0.260154 55.2396 0.0117209 43.0807C0.359117 27.3573 7.14089 14.7151 20.5836 6.34737C33.0898 -1.44638 46.306 -2.20159 59.4768 4.85206C71.4997 11.2864 78.7044 24.3062 78.7195 38.7307ZM75.1096 39.3953C75.1096 39.0932 75.0945 38.7911 75.0643 38.489C74.7924 36.1328 74.6112 33.7614 74.1883 31.4505C70.956 13.6578 54.7341 1.7406 37.1529 4.15726C11.0076 7.75206 -4.24765 38.625 8.60599 61.689C15.4029 73.8781 30.794 80.5541 42.5602 78.2583C61.1383 74.6333 74.6565 58.3057 75.1096 39.3953Z" fill="#B0735A"/>
</svg>
