<?xml version="1.0" encoding="utf-8"?>
<svg xmlns="http://www.w3.org/2000/svg" fill="none" height="100%" overflow="visible" preserveAspectRatio="none" style="display: block;" viewBox="0 0 32 32" width="100%">
<g id="behance 2">
<g id="Group">
<path d="M13.5254 16.0653C14.4882 16.0653 15.2189 16.4091 15.7175 17.0969C16.2161 17.7846 16.4827 18.4723 16.517 19.1601V20.1917C16.517 21.1545 16.3451 21.9798 16.0012 22.6676C15.6574 23.3553 15.2275 23.8539 14.7117 24.1634C14.1959 24.4729 13.6887 24.705 13.1901 24.8597C12.6915 25.0145 12.2702 25.109 11.9264 25.1434H11.4106H3.10611V8.48294H11.4106C12.7517 8.48294 13.8434 8.8612 14.6859 9.61771C15.5284 10.3742 15.9496 11.4746 15.9496 12.9189C15.9496 13.7785 15.7519 14.4749 15.3565 15.0079C14.961 15.5409 14.557 15.8589 14.1443 15.9621L13.5254 16.0653ZM6.76832 11.423V15.1368H11.1527C11.5997 15.1368 11.9436 15.0079 12.1843 14.75C12.425 14.4921 12.5453 13.9677 12.5453 13.1768C12.5453 12.661 12.4508 12.2569 12.2616 11.9646C12.0725 11.6723 11.8748 11.509 11.6685 11.4746L11.4106 11.423H6.76832ZM11.2042 22.1518C12.4766 22.1518 13.1127 21.4296 13.1127 19.9854C13.1127 19.2976 12.9752 18.7646 12.7001 18.3864C12.425 18.0081 12.1499 17.8018 11.8748 17.7674L11.4106 17.7158H6.76832V22.1518H11.2042ZM23.2741 12.7125C24.4776 12.7125 25.492 12.9618 26.3173 13.4604C27.1426 13.9591 27.7186 14.5608 28.0453 15.2658C28.3719 15.9707 28.6041 16.6756 28.7416 17.3806C28.8791 18.0855 28.9307 18.6787 28.8963 19.1601L28.8448 19.9338H20.5919C20.5919 20.8622 20.824 21.5672 21.2882 22.0486C21.7524 22.53 22.2253 22.7707 22.7067 22.7707L23.3772 22.8223C24.1681 22.8223 24.7785 22.6761 25.2083 22.3839C25.6382 22.0916 25.8703 21.8079 25.9047 21.5328L25.9563 21.0686H28.7416C28.7416 22.4784 28.286 23.5444 27.3747 24.2666C26.4635 24.9887 25.5608 25.3669 24.6667 25.4013L23.2741 25.4529C22.0361 25.4529 20.9873 25.238 20.1277 24.8081C19.268 24.3783 18.649 23.8453 18.2708 23.2092C17.8925 22.573 17.6088 21.9454 17.4197 21.3265C17.2306 20.7075 17.136 20.1917 17.136 19.7791V19.1085C17.136 18.9366 17.1446 18.7045 17.1618 18.4122C17.179 18.1199 17.2993 17.6041 17.5228 16.8648C17.7464 16.1254 18.0559 15.4807 18.4513 14.9305C18.8467 14.3803 19.4657 13.8731 20.3082 13.4089C21.1507 12.9446 22.1393 12.7125 23.2741 12.7125ZM25.8015 17.7158C25.8015 17.6471 25.7929 17.5525 25.7757 17.4321C25.7585 17.3118 25.7069 17.1055 25.621 16.8132C25.535 16.5209 25.4232 16.263 25.2857 16.0395C25.1482 15.8159 24.9074 15.6096 24.5636 15.4205C24.2197 15.2314 23.8243 15.1368 23.3772 15.1368C22.6551 15.1368 22.0533 15.3517 21.5719 15.7816C21.0905 16.2114 20.7982 16.6498 20.695 17.0969L20.5403 17.7158H25.8015ZM26.4721 9.46296V11.4746H19.8698V9.46296H26.4721Z" fill="var(--fill-0, #F1EFEA)" fill-opacity="0.8" id="Vector"/>
</g>
</g>
</svg>