<?xml version="1.0" encoding="utf-8"?>
<svg xmlns="http://www.w3.org/2000/svg" fill="none" height="100%" overflow="visible" preserveAspectRatio="none" style="display: block;" viewBox="0 0 20 20" width="100%">
<g id="Frame 6">
<path d="M9.9965 18.5992C12.408 18.5992 14.4395 15.013 14.4395 10.0242C14.4395 5.01458 12.4149 1.4215 9.9965 1.4215C7.58502 1.4215 5.55354 5.01458 5.55354 10.0242C5.55354 15.013 7.59193 18.5992 9.9965 18.5992ZM9.9965 2.35431C11.8 2.35431 13.4031 5.85066 13.4031 10.0242C13.4031 14.0871 11.8 17.6664 9.9965 17.6664C8.2 17.6664 6.59001 14.0871 6.59001 10.0242C6.59001 5.85066 8.2 2.35431 9.9965 2.35431ZM9.49215 1.55278V18.4195H10.5079V1.55278H9.49215ZM9.9965 13.486C7.28098 13.486 4.89021 14.1976 3.63954 15.3032L4.41343 15.9389C5.61573 15.02 7.54356 14.5017 9.9965 14.5017C12.4564 14.5017 14.3842 15.02 15.5865 15.9389L16.3604 15.3032C15.1098 14.1976 12.719 13.486 9.9965 13.486ZM18.2675 9.49215H1.73244V10.5079H18.2675V9.49215ZM9.9965 6.56237C12.719 6.56237 15.1098 5.85066 16.3604 4.7451L15.5865 4.1094C14.3842 5.0284 12.4564 5.54663 9.9965 5.54663C7.54356 5.54663 5.61573 5.0284 4.41343 4.1094L3.63954 4.7451C4.89021 5.85066 7.28098 6.56237 9.9965 6.56237ZM9.9965 19C14.9646 19 19 14.9716 19 10.0034C19 5.03531 14.9646 1 9.9965 1C5.0284 1 1 5.03531 1 10.0034C1 14.9716 5.0284 19 9.9965 19ZM9.9965 17.9497C5.60882 17.9497 2.05029 14.3912 2.05029 10.0034C2.05029 5.60882 5.60882 2.05029 9.9965 2.05029C14.3912 2.05029 17.9497 5.60882 17.9497 10.0034C17.9497 14.3912 14.3912 17.9497 9.9965 17.9497Z" fill="var(--fill-0, #ADECFF)" id="Vector" stroke="var(--stroke-0, #ADECFF)" stroke-width="0.1"/>
</g>
</svg>